<?xml version="1.0" encoding="UTF-8"?>
<svg id="Layer_2" data-name="Layer 2" xmlns="http://www.w3.org/2000/svg" viewBox="0 0 197 40">
  <defs>
    <style>
      .cls-1 {
        stroke: #fff;
        stroke-linecap: round;
        stroke-linejoin: round;
        stroke-width: 2px;
      }

      .cls-1, .cls-2 {
        fill: #fff;
      }

      .cls-3 {
        fill: #231f20;
      }

      .cls-3, .cls-2 {
        stroke-width: 0px;
      }
    </style>
  </defs>
  <g id="Layer_1-2" data-name="Layer 1">
    <g>
      <path class="cls-2" d="M195.98,39.95H.15V.97h195.83v38.97ZM4.96,27.98h2.98c.2-.74.32-1.17.52-1.91.45.91.75,1.54,1,2.04h2.63c1.65-1.36,2.77-2.27,3.83-3.14v-8.08q-1.73-1.14-3.85-.77c0,2.91,0,5.83-.01,8.74,0,.12-.2.26-.34.33-.08.04-.23-.03-.51-.09v-5.98c-.64-.63-1.11-1.08-1.45-1.42h-2.8v7.66h-.69v-8.12c-1.39-1.52-2.51-2.35-3.97-1.28v9.78c.88.74,1.49,1.25,2.68,2.25ZM194.99,17.06c-.99-1.17-2.06-2.1-3.74-1.22-.06,1.28-1.15,1.48-2,2.07-.8.55-1.21,1.62-1.96,2.7-.17-1.1-.31-1.99-.46-2.91-2.17.16-2.92-3.38-5.54-1.86v12.26h3.9v-7.5c.71,1.48,1.03,2.14,1.24,2.57h3.37c.24-.72.41-1.22.58-1.72l.59.05v6.78c1.59-.08,2.81-.14,4.02-.2v-11.03ZM150.08,28.17v-11.88c-1.2-.29-2.33-.56-3.9-.93v7.16c-1.52-1.09-2.74-1.96-3.83-2.74-.06-.8-.1-1.41-.15-2.12-2.28.28-2.97-3.34-5.66-1.81v12.28h3.87v-7.09c1.2,1.5,1.97,2.62,2.9,3.59,1.09,1.14,2.32,2.16,3.84,3.54h2.93ZM19.21,16.3v11.87h3.84v-4.67h4.02v4.62h3.78v-11.18c-.98-1.27-2.14-1.9-3.9-.91v4.23h-4.02v-4.88c-1.4.34-2.53.62-3.73.91ZM37.9,15.68c-1.59,1.35-2.79,2.38-3.73,3.18v9.25h3.65c.09-1.67.17-3.2.24-4.57h3.7c.12,1.68.22,3.21.32,4.53h3.7v-9.22c-1.21-.97-2.33-1.86-3.97-3.17h-3.91ZM161.69,28.26c.32-1.94,2.52-2.03,3.33-3.2v-6.11c-1.3-1.13-2.38-2.09-3.8-3.32-2.23.47-5.32-1.1-7.98,1.22,0,1.95-.02,3.87,0,5.79.02,1.88.07,3.76.11,5.61,3.04,0,5.69,0,8.33,0ZM121.43,18.33c0,2.64.09,5.56-.04,8.47-.07,1.51.74,1.52,1.81,1.47.63-.03,1.27,0,2.25,0v-4.76h3.02v4.62h3.78v-10.01c-1.23-.85-2.38-1.64-3.62-2.49h-3.51c-1.19.87-2.18,1.6-3.69,2.71ZM102.5,18.29c-1.5-1.09-2.61-1.89-3.6-2.61h-3.57c-1.46,1.01-2.59,1.78-3.65,2.52v7.77c.62.23,1.19.45,1.76.66.2.56.39,1.11.51,1.45h5.71c1.23-1.09,1.94-1.72,2.85-2.53v-7.26ZM87.52,15.59h-7.02c-1.4.93-2.57,1.7-3.65,2.42v3.21c.61.16,1.06.27,1.51.39.21.56.43,1.12.63,1.65,1.62.13,3.16.25,4.86.39-.25.8-.39,1.23-.57,1.8h-6.63c.08,1.07.15,1.95.2,2.64h7.89c1.21-1.08,1.93-1.72,2.76-2.46v-2.59c-1.43-.99-2.55-1.78-3.5-2.44-1.25-.14-2.31-.26-3.52-.39.25-.8.39-1.23.57-1.8h6.48v-2.81ZM168.32,16.88v11.39c3.05-.08,5.93.11,8.58-.11v-2.69c-1.73-.14-3.28-.26-4.82-.38.06-.67.09-.98.15-1.64h4.75v-2.97h-4.77v-2h4.75v-2.76h-7.46c-.31.31-.66.65-1.19,1.17ZM51.98,18.68v9.35h3.94v-9.23c.71-.24,1.28-.44,1.74-.59v-2.52h-7.71c-.35.72-.77,1.59-1.27,2.64,1.27.13,2.05.21,3.31.34ZM72.55,31.1v-3.82c-1.96,0-3.75-.02-5.54,0-1.75.02-3.5.09-5.05.13v3.68h10.59ZM106.6,31.02h10.88c-.07-1.37-.14-2.56-.2-3.58h-10.68v3.58Z"/>
      <path class="cls-2" d="M195.98,39.95V.97H.15c0-.32,0-.93,0-.93C1.64,0,3.13,0,4.62,0h192.36c0,12.99-.01,25.98.02,38.97,0,.84-.16,1.16-1.02.97Z"/>
      <path class="cls-3" d="M4.96,27.98c-1.19-1-1.8-1.51-2.68-2.25v-9.78c1.46-1.07,2.58-.23,3.97,1.28v8.13h.69v-7.67h2.8c.34.34.81.8,1.45,1.42v5.98c.29.06.43.13.51.09.14-.07.34-.22.34-.33.02-2.92.01-5.83.01-8.74q2.13-.36,3.85.77v8.08c-1.06.87-2.18,1.78-3.83,3.14h-2.63c-.24-.5-.55-1.13-1-2.04-.2.74-.32,1.17-.52,1.91h-2.98Z"/>
      <path class="cls-3" d="M194.99,17.06v11.03c-1.21.06-2.43.12-4.02.2v-6.78l-.59-.05c-.17.5-.34,1.01-.58,1.72h-3.37c-.21-.43-.53-1.1-1.24-2.57v7.5h-3.9v-12.26c2.62-1.52,3.37,2.02,5.54,1.86.14.92.28,1.81.46,2.91.75-1.08,1.17-2.15,1.96-2.7.85-.59,1.94-.79,2-2.07,1.68-.88,2.75.05,3.74,1.22Z"/>
      <path class="cls-3" d="M150.08,28.17h-2.93c-1.51-1.38-2.74-2.4-3.84-3.54-.93-.97-1.7-2.09-2.9-3.59v7.09h-3.87v-12.28c2.68-1.53,3.38,2.09,5.66,1.81.05.71.09,1.33.15,2.12,1.09.78,2.31,1.65,3.83,2.74v-7.16c1.57.38,2.71.65,3.9.93v11.88Z"/>
      <path class="cls-3" d="M19.21,16.3c1.19-.29,2.32-.57,3.73-.91v4.88h4.02v-4.23c1.76-.99,2.92-.36,3.9.91v11.18h-3.78v-4.62h-4.02v4.67h-3.84v-11.87Z"/>
      <path class="cls-3" d="M37.9,15.68h3.91c1.64,1.31,2.76,2.21,3.97,3.17v9.22h-3.7c-.09-1.32-.2-2.85-.32-4.53h-3.7c-.07,1.37-.15,2.91-.24,4.57h-3.65v-9.25c.94-.8,2.14-1.83,3.73-3.18ZM37.77,18.59c.17.86.26,1.3.38,1.89,1.34-.06,2.55-.12,3.88-.18-.16-.78-.24-1.22-.34-1.71h-3.92Z"/>
      <path class="cls-3" d="M161.69,28.26c-2.64,0-5.29,0-8.33,0-.04-1.85-.09-3.73-.11-5.61-.02-1.92,0-3.84,0-5.79,2.66-2.32,5.75-.76,7.98-1.22,1.41,1.23,2.5,2.19,3.8,3.32v6.11c-.81,1.17-3,1.27-3.33,3.2ZM157.38,18.6v6.77c1.4-.08,2.61-.14,3.64-.2v-6.57h-3.64Z"/>
      <path class="cls-3" d="M121.43,18.33c1.51-1.11,2.51-1.84,3.69-2.71h3.51c1.23.85,2.38,1.64,3.62,2.49v10.01h-3.78v-4.62h-3.02v4.76c-.98,0-1.61-.02-2.25,0-1.07.05-1.88.04-1.81-1.47.13-2.91.04-5.82.04-8.47ZM128.3,18.67h-2.82v1.62h2.82v-1.62Z"/>
      <path class="cls-3" d="M102.5,18.29v7.26c-.91.81-1.62,1.44-2.85,2.53h-5.71c-.12-.34-.32-.89-.51-1.45-.57-.21-1.14-.43-1.75-.66v-7.77c1.06-.73,2.19-1.51,3.65-2.52h3.57c.99.72,2.1,1.52,3.6,2.61ZM95.58,18.6c0,1.65-.02,3.22,0,4.79.02,1.79.04,1.79,2.8,1.75v-6.54h-2.81Z"/>
      <path class="cls-3" d="M87.52,15.59v2.81h-6.48c-.18.57-.32,1-.57,1.8,1.21.14,2.27.25,3.52.39.95.66,2.08,1.45,3.5,2.44v2.59c-.83.74-1.55,1.38-2.76,2.46h-7.89c-.05-.69-.12-1.57-.2-2.64h6.63c.18-.57.32-1,.57-1.8-1.7-.14-3.24-.26-4.86-.39-.2-.53-.42-1.09-.63-1.65-.45-.11-.9-.23-1.51-.39v-3.21c1.08-.72,2.25-1.5,3.65-2.42h7.02Z"/>
      <path class="cls-3" d="M168.32,16.88c.53-.52.88-.86,1.19-1.17h7.46v2.76h-4.75v2h4.77v2.97h-4.75c-.06.65-.09.97-.15,1.64,1.54.12,3.08.25,4.82.38v2.69c-2.65.22-5.54.04-8.58.11v-11.39Z"/>
      <path class="cls-3" d="M51.98,18.68c-1.26-.13-2.04-.21-3.31-.34.51-1.05.92-1.92,1.27-2.64h7.71v2.52c-.45.15-1.02.35-1.74.59v9.23h-3.94v-9.35Z"/>
      <path class="cls-3" d="M72.55,31.1h-10.59v-3.68c1.55-.04,3.3-.11,5.05-.13,1.79-.02,3.58,0,5.54,0v3.82Z"/>
      <path class="cls-3" d="M106.6,31.02v-3.58h10.68c.06,1.02.12,2.21.2,3.58h-10.88Z"/>
      <path class="cls-2" d="M37.77,18.59h3.92c.1.49.19.93.34,1.71-1.33.06-2.54.12-3.88.18-.12-.6-.21-1.03-.38-1.89Z"/>
      <path class="cls-2" d="M157.38,18.6h3.64v6.57c-1.03.06-2.24.12-3.64.2v-6.77Z"/>
      <path class="cls-2" d="M128.3,18.67v1.62h-2.82v-1.62h2.82Z"/>
      <path class="cls-2" d="M95.58,18.6h2.81v6.54c-2.77.04-2.78.04-2.8-1.75-.02-1.57,0-3.15,0-4.79Z"/>
      <path class="cls-1" d="M17.54,15.1c0,2.27-.1,4.55.03,6.82.12,2.2-.24,4.29-1.02,6.33"/>
      <path class="cls-1" d="M151.75,15.1v15.1"/>
      <path class="cls-1" d="M165.66,16.08c1.68,4.06,1.3,8.12,0,12.18"/>
      <path class="cls-1" d="M33.45,16.08c-.33,1.3-.9,2.59-.95,3.9-.14,3.4-.05,6.82-.05,10.23"/>
      <path class="cls-1" d="M133.85,16.08c.17,2.6.38,5.19.48,7.8.08,1.95.02,3.9.02,5.85"/>
      <path class="cls-1" d="M90.11,16.08c-.48,2.25-1.45,4.37-.59,6.85.5,1.46.09,3.22.09,4.84"/>
      <path class="cls-1" d="M2.14,14.13c-.17.16-.46.31-.48.49-.73,5.9-1.73,11.84,2.47,17.05"/>
      <path class="cls-1" d="M193.99,14.13c.5.97,1.41,1.95,1.42,2.92.01,3.9-.26,7.79-.42,11.69"/>
      <path class="cls-1" d="M179.08,14.62v15.1"/>
      <path class="cls-1" d="M188.03,15.59c-.17,1.46-.33,2.92-.5,4.38"/>
      <path class="cls-1" d="M8.6,26.79v3.9"/>
      <path class="cls-1" d="M10.09,15.59c1.98,2.86,1.44,6.1,1.49,9.26"/>
      <path class="cls-1" d="M73.71,23.38c3.15.32,6.3.65,9.44.97"/>
      <path class="cls-1" d="M71.22,21.44c2.02,1.45,3.04,3.6,3.39,5.86.3,1.87,1.08,3.36,2.07,4.86"/>
      <path class="cls-1" d="M7.11,16.56c-.17,2.76-.33,5.52-.5,8.28"/>
      <path class="cls-1" d="M88.12,20.46c-2.32-.32-4.64-.65-6.96-.97"/>
      <path class="cls-1" d="M178.09,19.49h-5.47"/>
      <path class="cls-1" d="M178.09,24.36h-5.47"/>
    </g>
  </g>
</svg>