<?xml version="1.0" encoding="UTF-8"?>
<svg id="Layer_2" data-name="Layer 2" xmlns="http://www.w3.org/2000/svg" viewBox="0 0 197 40">
  <defs>
    <style>
      .cls-1 {
        fill: none;
        stroke: #000;
        stroke-linecap: round;
        stroke-linejoin: round;
        stroke-width: 2px;
      }

      .cls-2 {
        fill: #000;
      }

      .cls-2, .cls-3 {
        stroke-width: 0px;
      }

      .cls-3 {
        fill: #fff;
      }
    </style>
  </defs>
  <g id="Layer_1-2" data-name="Layer 1">
    <g>
      <path class="cls-2" d="M196.01,40H.15V0h195.87v40ZM7.79,27.9c.35-.91.52-1.37.83-2.19.39,1.07.6,1.65.78,2.16h2.65c1.65-1.37,2.76-2.3,3.9-3.25v-8.26q-1.68-1.19-3.83-.9c-.2,3.13.21,6.3-.87,9.39v-6.19c-.64-.64-1.11-1.11-1.53-1.54h-2.73v7.85c-1.28-2.84-.55-5.79-1.03-8.64-1.02-1.21-2.15-2-3.71-.97v9.76c1.04,1.06,1.72,1.75,2.71,2.76h2.83ZM181.28,14.6v13.3h3.85v-7.79c.76,1.58,1.06,2.22,1.31,2.73h3.39c.09-.46.11-.79.24-1.07.12-.26.37-.45,1.02-1.21v7.22h3.81v-11.96c-1.14-.35-2.27-.7-3.22-.99-.64.96-.95,1.96-1.46,2.08-1.55.35-2.07,1.34-2.31,2.71-.01.07-.43.07-.7.1-.09-.85-.18-1.64-.24-2.18-.95-.63-1.67-1.22-2.49-1.63-.91-.47-1.9-.79-3.19-1.32ZM136.36,15.35c0,3.59.08,7.37-.04,11.15-.05,1.55.75,1.56,1.82,1.5.63-.03,1.27,0,2.25,0v-6.92c-.26,2.4,3.04,1.41,3.24,3.56.13,1.42,2.94,1.44,3.17,3.13h3.34v-11.98c-1.16-.33-2.29-.65-3.88-1.1v7.41c-1.55-1.1-2.77-1.97-3.9-2.77-.04-.77-.08-1.4-.12-2.09-2.24.13-2.96-3.39-5.88-1.89ZM30.8,27.91v-12.18c-1.19-.3-2.33-.58-3.9-.98v5.1h-3.77c-.09-1.72-.18-3.29-.29-5.37-1.58.64-2.7,1.1-3.69,1.5v11.8h3.96v-4.55h4.02v4.67h3.67ZM45.76,18.36c-.87-1.35-3.21-1.27-3.34-3.34h-4.52c-1.54,1.36-2.75,2.42-3.78,3.33v9.68c1.4-.08,2.62-.15,4-.24v-4.69h3.86v4.76h3.79v-9.51ZM161.07,27.98c1.8-1.51,2.92-2.45,4-3.36v-6.31c-1.23-1.01-2.36-1.94-3.91-3.21h-7.02c-1.71,4.23-.57,8.57-.78,12.87h7.73ZM128.41,23.09c0,1.15.1,2.29-.02,3.41-.18,1.55.73,1.56,1.8,1.51.63-.03,1.27,0,2.05,0v-10.51c-1.09-.74-2.26-1.53-3.43-2.33h-3.52c-1.63,1.01-2.69,1.67-3.7,2.29v10.31h3.98v-4.67h2.84ZM102.47,17.65c-1.33-.96-2.46-1.78-3.61-2.61h-3.44c-1.47.99-2.63,1.77-3.61,2.43v7.59c1.12,1.27,1.75,2,2.45,2.79h5.44c1.08-1.06,1.77-1.73,2.76-2.7v-7.51ZM83.56,25h-6.76v2.8h7.91c1.33-1.14,2.06-1.76,2.77-2.37v-2.74c-1.35-1.02-2.35-1.77-3.44-2.59-1.03-.13-2.22-.28-3.42-.43.11-.69.16-1.01.26-1.67h6.66v-2.85h-7.2c-1.27.86-2.44,1.65-3.62,2.44v2.62c.98.95,1.79,1.74,3,2.91h3.85v1.88ZM177.03,15.18h-7.53c-.53.53-.88.88-1.19,1.2v11.4h8.68v-2.66c-1.71-.1-3.28-.19-4.96-.29.16-.8.25-1.25.33-1.67,1.7-.13,3.25-.26,4.57-.36v-2.66c-1.74-.15-3.28-.28-4.82-.41.07-.7.11-1.02.18-1.68h4.74v-2.87ZM51.86,27.83h3.94v-9.48c.69-.25,1.25-.46,2.04-.74-.06-.84-.13-1.73-.19-2.46h-7.71c-.43.84-.82,1.61-1.32,2.6,1.31.19,2.22.32,3.24.47v9.62ZM72.63,27c-3.43,0-6.4.09-9.36-.04-1.53-.07-1.57.75-1.48,1.82.06.75.15,1.5.2,2.04h10.64v-3.82ZM117.37,27.15h-10.87c.07,1.4.13,2.63.18,3.69h10.7v-3.69Z"/>
      <path class="cls-3" d="M196.01,40V0c.33.17.95.33.95.5.04,13,.04,26,0,39,0,.17-.62.33-.95.5Z"/>
      <path class="cls-3" d="M7.79,27.9h-2.83c-.99-1.01-1.67-1.7-2.71-2.76v-9.76c1.56-1.03,2.68-.24,3.71.97.48,2.85-.25,5.79,1.03,8.64v-7.85h2.73c.42.42.89.89,1.53,1.54v6.19c1.08-3.09.67-6.26.87-9.39q2.15-.29,3.83.9v8.26c-1.14.95-2.26,1.88-3.9,3.25h-2.65c-.18-.51-.39-1.09-.78-2.16-.31.82-.48,1.28-.83,2.19Z"/>
      <path class="cls-3" d="M181.28,14.6c1.29.52,2.28.84,3.19,1.32.81.42,1.54,1,2.49,1.63.06.54.14,1.33.24,2.18.27-.04.69-.03.7-.1.24-1.37.77-2.35,2.31-2.71.51-.12.82-1.12,1.46-2.08.95.29,2.08.64,3.22.99v11.96h-3.81v-7.22c-.65.76-.9.95-1.02,1.21-.13.27-.14.61-.24,1.07h-3.39c-.25-.51-.55-1.15-1.31-2.73v7.79h-3.85v-13.3Z"/>
      <path class="cls-3" d="M136.36,15.35c2.92-1.51,3.65,2.01,5.88,1.89.04.68.07,1.32.12,2.09,1.13.8,2.35,1.67,3.9,2.77v-7.41c1.59.45,2.72.77,3.88,1.1v11.98h-3.34c-.23-1.7-3.04-1.71-3.17-3.13-.2-2.15-3.5-1.16-3.24-3.56v6.92c-.98,0-1.61-.03-2.25,0-1.07.05-1.86.04-1.82-1.5.12-3.78.04-7.56.04-11.15Z"/>
      <path class="cls-3" d="M30.8,27.91h-3.67v-4.67h-4.02v4.55h-3.96v-11.8c.98-.4,2.11-.86,3.69-1.5.11,2.08.2,3.65.29,5.37h3.77v-5.1c1.58.39,2.71.68,3.9.98v12.18Z"/>
      <path class="cls-3" d="M45.76,18.36v9.51h-3.79v-4.76h-3.86v4.69c-1.38.08-2.6.15-4,.24v-9.68c1.04-.91,2.24-1.97,3.78-3.33h4.52c.13,2.07,2.47,1.99,3.34,3.34ZM38.02,19.83h3.79v-1.65h-3.79v1.65Z"/>
      <path class="cls-3" d="M161.07,27.98h-7.73c.21-4.3-.93-8.64.78-12.87h7.02c1.55,1.27,2.68,2.2,3.91,3.21v6.31c-1.08.91-2.19,1.84-4,3.36ZM161.03,25c.27-2.34.3-4.67,0-6.82h-3.85c.2,2.4-.21,4.65.29,6.82h3.56Z"/>
      <path class="cls-3" d="M128.41,23.09h-2.84v4.67h-3.98v-10.31c1.01-.63,2.07-1.28,3.7-2.29h3.52c1.17.8,2.34,1.59,3.43,2.33v10.51c-.78,0-1.42-.03-2.05,0-1.07.05-1.98.05-1.8-1.51.13-1.11.02-2.25.02-3.41ZM125.13,19.74h3.4c-.15-.72-.24-1.17-.36-1.79-.89.08-1.66.1-2.41.25-.16.03-.23.53-.63,1.54Z"/>
      <path class="cls-3" d="M102.47,17.65v7.51c-.99.97-1.68,1.64-2.76,2.7h-5.44c-.69-.79-1.33-1.51-2.45-2.79v-7.59c.98-.66,2.14-1.44,3.61-2.43h3.44c1.15.83,2.28,1.65,3.61,2.61ZM95.76,18.09v6.82h2.65v-6.82h-2.65Z"/>
      <path class="cls-3" d="M83.56,25v-1.88h-3.85c-1.2-1.17-2.02-1.96-3-2.91v-2.62c1.18-.8,2.35-1.58,3.62-2.44h7.2v2.85h-6.66c-.1.67-.15.98-.26,1.67,1.2.15,2.39.3,3.42.43,1.09.82,2.08,1.57,3.44,2.59v2.74c-.71.6-1.44,1.23-2.77,2.37h-7.91v-2.8h6.76Z"/>
      <path class="cls-3" d="M177.03,15.18v2.87h-4.74c-.07.67-.1.99-.18,1.68,1.54.13,3.08.26,4.82.41v2.66c-1.32.1-2.87.23-4.57.36-.08.42-.17.88-.33,1.67,1.68.1,3.25.19,4.96.29v2.66h-8.68v-11.4c.32-.32.67-.67,1.19-1.2h7.53Z"/>
      <path class="cls-3" d="M51.86,27.83v-9.62c-1.02-.15-1.92-.28-3.24-.47.5-.99.89-1.76,1.32-2.6h7.71c.06.73.12,1.63.19,2.46-.78.29-1.35.49-2.04.74v9.48h-3.94Z"/>
      <path class="cls-3" d="M72.63,27v3.82h-10.64c-.05-.54-.14-1.29-.2-2.04-.08-1.07-.05-1.88,1.48-1.82,2.96.13,5.93.04,9.36.04Z"/>
      <path class="cls-3" d="M117.37,27.15v3.69h-10.7c-.05-1.06-.11-2.29-.18-3.69h10.87Z"/>
      <path class="cls-2" d="M38.02,19.83v-1.65h3.79v1.65h-3.79Z"/>
      <path class="cls-2" d="M161.03,25h-3.56c-.5-2.18-.09-4.43-.29-6.82h3.85c.29,2.16.27,4.49,0,6.82Z"/>
      <path class="cls-2" d="M125.13,19.74c.4-1.01.47-1.51.63-1.54.75-.15,1.52-.17,2.41-.25.12.62.21,1.07.36,1.79h-3.4Z"/>
      <path class="cls-2" d="M95.76,18.09h2.65v6.82h-2.65v-6.82Z"/>
      <path class="cls-1" d="M17.55,14.5c0,2.33-.1,4.67.03,7,.12,2.26-.24,4.4-1.02,6.5"/>
      <path class="cls-1" d="M151.77,14.5v15.5"/>
      <path class="cls-1" d="M165.69,15.5c1.68,4.17,1.3,8.33,0,12.5"/>
      <path class="cls-1" d="M33.45,15.5c-.33,1.33-.9,2.66-.95,4-.14,3.49-.05,7-.05,10.5"/>
      <path class="cls-1" d="M133.87,15.5c.17,2.67.38,5.33.48,8,.08,2,.02,4,.02,6"/>
      <path class="cls-1" d="M90.13,15.5c-.48,2.31-1.45,4.49-.59,7.03.5,1.49.09,3.3.09,4.97"/>
      <path class="cls-1" d="M2.14,13.5c-.17.17-.46.32-.48.5-.73,6.05-1.73,12.15,2.47,17.5"/>
      <path class="cls-1" d="M194.03,13.5c.5,1,1.41,2,1.42,3,.01,4-.26,8-.42,12"/>
      <path class="cls-1" d="M179.11,14v15.5"/>
      <path class="cls-1" d="M188.06,15c-.17,1.5-.33,3-.5,4.5"/>
      <path class="cls-1" d="M8.6,26.5v4"/>
      <path class="cls-1" d="M10.09,15c1.98,2.93,1.44,6.26,1.49,9.5"/>
      <path class="cls-1" d="M73.72,23c3.15.33,6.3.67,9.45,1"/>
      <path class="cls-1" d="M71.24,21c2.02,1.49,3.04,3.7,3.39,6.01.3,1.92,1.08,3.45,2.07,4.99"/>
      <path class="cls-1" d="M7.11,16c-.17,2.83-.33,5.67-.5,8.5"/>
      <path class="cls-1" d="M88.14,20c-2.32-.33-4.64-.67-6.96-1"/>
      <path class="cls-1" d="M178.12,19h-5.47"/>
      <path class="cls-1" d="M178.12,24h-5.47"/>
    </g>
  </g>
</svg>