<?xml version="1.0" encoding="UTF-8"?>
<svg id="Layer_2" data-name="Layer 2" xmlns="http://www.w3.org/2000/svg" viewBox="0 0 197.86 41">
  <defs>
    <style>
      .cls-1 {
        fill: #a53133;
      }

      .cls-1, .cls-2, .cls-3 {
        stroke: #fff;
      }

      .cls-1, .cls-3 {
        stroke-miterlimit: 10;
      }

      .cls-2 {
        stroke-linecap: round;
        stroke-linejoin: round;
        stroke-width: 2px;
      }

      .cls-2, .cls-3 {
        fill: #fff;
      }
    </style>
  </defs>
  <g id="Layer_1-2" data-name="Layer 1">
    <g>
      <path class="cls-3" d="M.5,39.53V.55h195.83v38.97H.5ZM2.66,14.85v10.15c1.1,1.16,1.75,1.86,2.55,2.71h2.94c.24-.68.45-1.24.73-2.02.41.85.72,1.5.94,1.96h2.63c1.69-1.38,2.81-2.29,3.81-3.11v-8.63c-1.17-.32-2.3-.62-3.87-1.05,0,3.52,0,6.56-.01,9.59,0,.12-.2.27-.34.33-.08.03-.23-.08-.51-.2v-5.88c-1.15-1.51-2.32-2.13-4.25-1.07v7.24c-.23,0-.46,0-.69,0v-8.82c-1.35-.42-2.48-.77-3.91-1.21ZM195.17,27.74v-11.87c-1.2-.29-2.33-.56-3.54-.85-.1,1.66-1.16,1.89-2.02,2.47-.8.54-1.22,1.63-1.96,2.71-.17-1.1-.32-1.99-.47-2.95-2.18.26-2.9-3.36-5.53-1.82v12.26h3.9v-7.51c.71,1.48,1.03,2.15,1.24,2.58h3.41c.18-.64.29-1.08.44-1.51.03-.08.22-.1.69-.28v6.76h3.85ZM150.44,27.74v-11.88c-1.2-.29-2.33-.56-3.9-.94v7.16c-1.52-1.09-2.74-1.96-3.83-2.73-.06-.79-.1-1.41-.15-2.13-2.28.29-2.97-3.34-5.66-1.8v12.28h3.87v-7.09c1.2,1.49,1.97,2.61,2.9,3.59,1.09,1.14,2.32,2.16,3.83,3.54h2.93ZM27.53,14.65c-.12,2.01-.21,3.55-.3,5.19h-3.93v-4.34c-1.85-.97-2.92-.04-3.74.94v11.42c1.4-.08,2.62-.15,4-.23v-4.57h3.86v4.64h3.79v-11.57c-.96-.39-2.09-.85-3.67-1.48ZM42.1,22.96c.09,1.5.18,3.04.27,4.68h3.75v-9.23c-1.22-.97-2.34-1.87-3.97-3.16h-3.88c-1.66,1.41-2.85,2.41-3.74,3.17v9.26h3.62c.1-1.68.2-3.21.29-4.72h3.65ZM153.77,16.46v11.28h7.78c1.65-1.39,2.86-2.41,3.9-3.28v-5.92c-.99-1.44-3.21-1.45-3.39-3.32h-7.02c-.4.39-.75.74-1.27,1.24ZM125.93,27.74v-4.68h2.85v4.66h3.8v-10.09c-1.16-.78-2.32-1.56-3.65-2.45h-3.34c-1.42.93-2.58,1.71-3.66,2.42v10.15h4ZM92.13,17.78v7.22c1.1,1.17,1.75,1.86,2.55,2.72h5.37c1.03-1,1.71-1.67,2.73-2.67v-7.37c-1.23-.84-2.38-1.63-3.62-2.49h-3.51c-1.18.87-2.18,1.6-3.52,2.59ZM87.81,18.12v-2.85h-7.03c-1.38.94-2.41,1.64-3.64,2.48v2.22c1.12,1.31,1.83,2.14,2.74,3.21h4.17c-.09.67-.16,1.11-.27,1.88h-6.56v2.68h7.93c1-.99,1.68-1.66,2.72-2.69v-2.44c-1.13-.85-2.02-1.8-3.13-2.25-1.12-.45-2.45-.4-3.76-.58.09-.62.15-1.06.24-1.66h6.59ZM172.58,18.09h4.77v-2.78h-7.5c-.36.36-.83.82-1.19,1.17v11.11h8.63v-2.53c-1.72-.13-3.28-.25-4.96-.37.21-.78.32-1.22.47-1.8h4.69c-.05-1.06-.1-1.94-.15-2.97h-4.75v-1.83ZM56.34,27.74v-9.43c.73-.24,1.3-.42,1.65-.53v-2.53h-7.55c-.47.75-.95,1.51-1.59,2.53,1.29.21,2.19.36,3.4.56v9.41h4.09ZM72.98,26.86c-3.43,0-6.39.09-9.35-.04-1.53-.06-1.57.73-1.48,1.77.06.73.14,1.46.2,1.99h10.64v-3.73ZM117.64,30.68v-3.58h-10.6v3.58h10.6Z"/>
      <path class="cls-3" d="M.5,39.53h195.83V.55c.86-.19,1.02.14,1.02.97-.04,12.99-.02,25.98-.02,38.97H4.98c-1.49,0-2.98,0-4.47-.04,0,0,0-.61,0-.93Z"/>
      <path class="cls-1" d="M2.66,14.85c1.43.44,2.56.79,3.91,1.21v8.82c.23,0,.46,0,.69,0v-7.24c1.94-1.05,3.1-.43,4.25,1.07v5.88c.29.12.44.24.51.2.14-.06.34-.21.34-.33.02-3.04.01-6.07.01-9.59,1.57.43,2.71.73,3.87,1.05v8.63c-1.01.82-2.12,1.73-3.81,3.11h-2.63c-.22-.46-.53-1.11-.94-1.96-.28.77-.48,1.34-.73,2.02h-2.94c-.8-.85-1.46-1.55-2.55-2.71v-10.15Z"/>
      <path class="cls-1" d="M195.17,27.74h-3.85v-6.76c-.46.19-.66.21-.69.28-.15.43-.26.87-.44,1.51h-3.41c-.21-.44-.53-1.1-1.24-2.58v7.51h-3.9v-12.26c2.63-1.54,3.35,2.08,5.53,1.82.15.96.29,1.85.47,2.95.75-1.08,1.16-2.17,1.96-2.71.86-.58,1.92-.81,2.02-2.47,1.21.29,2.34.56,3.54.85v11.87Z"/>
      <path class="cls-1" d="M150.44,27.74h-2.93c-1.51-1.38-2.74-2.4-3.83-3.54-.93-.97-1.7-2.09-2.9-3.59v7.09h-3.87v-12.28c2.69-1.53,3.38,2.09,5.66,1.8.05.72.09,1.34.15,2.13,1.09.78,2.31,1.65,3.83,2.73v-7.16c1.57.38,2.71.65,3.9.94v11.88Z"/>
      <path class="cls-1" d="M27.53,14.65c1.58.64,2.71,1.09,3.67,1.48v11.57h-3.79v-4.64h-3.86v4.57c-1.38.08-2.6.15-4,.23v-11.42c.83-.98,1.9-1.9,3.74-.94v4.34h3.93c.1-1.64.19-3.18.3-5.19Z"/>
      <path class="cls-1" d="M42.1,22.96h-3.65c-.09,1.51-.19,3.04-.29,4.72h-3.62v-9.26c.89-.75,2.08-1.76,3.74-3.17h3.88c1.62,1.29,2.75,2.19,3.97,3.16v9.23h-3.75c-.1-1.64-.19-3.18-.27-4.68ZM42.4,19.96c-.17-.86-.26-1.3-.38-1.89-1.34.06-2.55.12-3.88.18.16.78.24,1.22.34,1.71h3.92Z"/>
      <path class="cls-1" d="M153.77,16.46c.51-.5.86-.85,1.27-1.24h7.02c.18,1.87,2.4,1.88,3.39,3.32v5.92c-1.04.88-2.25,1.89-3.9,3.28h-7.78v-11.28ZM161.38,24.83v-6.77c-1.4.07-2.61.14-3.64.19v6.58h3.64Z"/>
      <path class="cls-1" d="M125.93,27.74h-4v-10.15c1.08-.71,2.24-1.48,3.66-2.42h3.34c1.33.89,2.49,1.67,3.65,2.45v10.09h-3.8v-4.66h-2.85v4.68ZM125.47,19.79h3.39c-.15-.7-.24-1.14-.36-1.74-.89.08-1.66.1-2.41.24-.16.03-.23.51-.63,1.5Z"/>
      <path class="cls-1" d="M92.13,17.78c1.35-.99,2.34-1.72,3.52-2.59h3.51c1.24.85,2.39,1.64,3.62,2.49v7.37c-1.02,1-1.7,1.67-2.73,2.67h-5.37c-.81-.86-1.46-1.55-2.55-2.72v-7.22ZM96.11,18.18v6.64h2.64v-6.64h-2.64Z"/>
      <path class="cls-1" d="M87.81,18.12h-6.59c-.08.6-.15,1.04-.24,1.66,1.31.18,2.64.13,3.76.58,1.1.45,1.99,1.41,3.13,2.25v2.44c-1.03,1.02-1.71,1.7-2.72,2.69h-7.93v-2.68h6.56c.11-.77.17-1.21.27-1.88h-4.17c-.91-1.07-1.63-1.9-2.74-3.21v-2.22c1.24-.84,2.26-1.54,3.64-2.48h7.03v2.85Z"/>
      <path class="cls-1" d="M172.58,18.09v1.83h4.75c.05,1.03.1,1.91.15,2.97h-4.69c-.15.58-.27,1.01-.47,1.8,1.69.13,3.24.24,4.96.37v2.53h-8.63v-11.11c.36-.35.83-.81,1.19-1.17h7.5v2.78h-4.77Z"/>
      <path class="cls-1" d="M56.34,27.74h-4.09v-9.41c-1.21-.2-2.11-.35-3.4-.56.64-1.02,1.11-1.78,1.59-2.53h7.55v2.53c-.35.11-.92.3-1.65.53v9.43Z"/>
      <path class="cls-1" d="M72.98,26.86v3.73h-10.64c-.05-.53-.14-1.26-.2-1.99-.08-1.04-.05-1.84,1.48-1.77,2.96.12,5.93.04,9.35.04Z"/>
      <path class="cls-1" d="M117.64,30.68h-10.6v-3.58h10.6v3.58Z"/>
      <path class="cls-3" d="M42.4,19.96h-3.92c-.1-.49-.19-.93-.34-1.71,1.33-.06,2.54-.12,3.88-.18.12.6.21,1.03.38,1.89Z"/>
      <path class="cls-3" d="M161.38,24.83h-3.64v-6.58c1.03-.05,2.25-.12,3.64-.19v6.77Z"/>
      <path class="cls-3" d="M125.47,19.79c.4-.99.47-1.47.63-1.5.75-.15,1.52-.17,2.41-.24.12.6.21,1.04.36,1.74h-3.39Z"/>
      <path class="cls-3" d="M96.11,18.18h2.64v6.64h-2.64v-6.64Z"/>
      <path class="cls-2" d="M134.21,15.65c.17,1.62.45,3.25.47,4.87.07,4.06.02,8.12.02,12.18"/>
      <path class="cls-2" d="M33.81,15.65c-.82,1.36-1.04,2.82-1.02,4.38.06,4.38.02,8.77.02,13.15"/>
      <path class="cls-2" d="M152.1,14.68v18.51"/>
      <path class="cls-2" d="M17.9,14.68c0,2.27-.1,4.55.03,6.82.12,2.2-.24,4.29-1.02,6.33"/>
      <path class="cls-2" d="M166.02,15.65c1.68,4.06,1.3,8.12,0,12.18"/>
      <path class="cls-2" d="M2.49,13.71c-.17.16-.46.31-.48.49-.73,5.9-1.73,11.84,2.47,17.05"/>
      <path class="cls-2" d="M194.35,13.71c.5.97,1.41,1.95,1.42,2.92.01,3.9-.26,7.79-.42,11.69"/>
      <path class="cls-2" d="M90.47,15.65c-.48,2.25-1.45,4.37-.59,6.85.5,1.46.09,3.22.09,4.84"/>
      <path class="cls-2" d="M179.44,14.19v18.51"/>
      <path class="cls-2" d="M188.39,15.17c-.17,1.46-.33,2.92-.5,4.38"/>
      <path class="cls-2" d="M74.07,22.96c3.15.32,6.3.65,9.44.97"/>
      <path class="cls-2" d="M10.44,15.17c1.98,2.86,1.44,6.1,1.49,9.26"/>
      <path class="cls-2" d="M127.25,24.42v8.77"/>
      <path class="cls-2" d="M7.46,16.14c-.17,2.76-.33,5.52-.5,8.28"/>
      <path class="cls-2" d="M71.58,21.01c2.02,1.45,3.04,3.6,3.39,5.86.3,1.87,1.08,3.36,2.07,4.86"/>
      <path class="cls-2" d="M88.48,20.04c-2.32-.32-4.64-.65-6.96-.97"/>
      <path class="cls-2" d="M8.95,26.37v6.82"/>
      <path class="cls-2" d="M178.44,23.94h-5.47"/>
      <path class="cls-2" d="M178.44,19.06h-5.47"/>
    </g>
  </g>
</svg>