<?xml version="1.0" encoding="UTF-8"?>
<svg id="Layer_2" data-name="Layer 2" xmlns="http://www.w3.org/2000/svg" viewBox="0 0 245.12 223.92">
  <defs>
    <style>
      .cls-1 {
        fill: #000;
      }

      .cls-1, .cls-2 {
        stroke-width: 0px;
      }

      .cls-2 {
        fill: #fff;
      }
    </style>
  </defs>
  <g id="Layer_1-2" data-name="Layer 1">
    <g>
      <path class="cls-1" d="M232.84,52.88c2.01,30.7,2.87,61.95,7.47,92.39,1.5,10.92,3.33,21.74,4.47,32.71.75,6.28.59,13.63-4.22,17.84-2.96,2.82-8.31,4.24-12.83,4.95-22.56,3.35-45.83,4.64-68.41,8.72-14.62,2.41-29.78,2.79-44.7,4.64-19.6,2.21-39.35,5.8-58.91,7.29-7.77.44-15.57,1.68-23.28,2.35-10.63,1.1-17.11-3.7-18.5-14.47-1.55-15.14-3.57-30.24-3.22-45.43,1.49-25.13.05-50.61-3.07-75.48-1.71-13.11-2.82-26.33-4.12-39.47C2.62,40.81.61,32.73.1,24.64-1.76,1.93,22.57,4.94,38.32,3.29c23.55-.57,46.84-2.31,70.29-3.29,17.36.1,34.53.9,51.82.68,12.02.21,23.76.56,36,.57,7.85.33,18.06-1.26,24.33,3.87,5.1,4.56,5.67,12.22,7.15,18.59,1.97,9.72,4.18,19.17,4.92,28.9l.02.28ZM196.68,180.62c2.1-4.42-.02-9.59-2.16-13.8-3.36-6.53-7.3-13-9.76-19.99-2.19-6-3.38-12.32-4.1-18.66-1.19-11.1-1.49-22.33-.77-33.41.74-15.41,4.54-31.06,1.84-46.44-2.2-12.28-11.56-22.68-23.74-25.61-7.32-2.03-15.16-1.72-22.68-2.19-24.85-1.51-50.35-.57-75.09,2.54-4.96.88-9.58,2.49-12.9,5.34-7,5.47-6.95,16.31.98,20.46,6.95,3.91,17.73,2.76,26.07,2.32,9.8-.8,19.69-1.14,29.53-1.44,12.51-.07,27.34-2.09,36.99,7.44,7.23,5.68,11.36,36.24-1.17,37.74-6.11.32-11.45-3.65-16.73-6.26-6.87-3.78-14.53-6.2-22.4-7.15-24.13-2.61-57.23,1.27-65.06,28.46-5.17,19.3-5.27,48.7,5.61,65.84,5.58,8.82,13.64,16.38,23.38,20.33,18.58,7.49,38.69-.6,56.17-7.69,6.78-2.6,14.93-7.55,20.44-7.67,8.09-.19,9.83,10.35,17.07,12.37,5.43,2.03,13.97-.28,20.79-2.39,6.23-2.1,14.21-3.89,17.58-9.96l.09-.18ZM224.04,154.77c-12.29-.25-11.64,15.36-.81,17.3,12.21,1.05,12.66-16.2,1.1-17.28l-.29-.02Z"/>
      <path class="cls-2" d="M196.59,180.8c-3.37,6.07-11.36,7.85-17.58,9.96-6.83,2.11-15.36,4.42-20.8,2.39-7.24-2.02-8.99-12.57-17.07-12.37-5.5.13-13.66,5.08-20.44,7.67-17.48,7.09-37.59,15.18-56.17,7.69-9.73-3.96-17.79-11.51-23.38-20.33-10.89-17.16-10.77-46.52-5.61-65.84,7.84-27.19,40.91-31.06,65.06-28.46,7.86.95,15.53,3.37,22.4,7.15,5.28,2.61,10.62,6.58,16.73,6.26,12.51-1.48,8.42-32.01,1.17-37.73-9.66-9.53-24.48-7.5-36.99-7.44-9.84.3-19.73.64-29.53,1.44-8.34.44-19.12,1.59-26.07-2.32-7.9-4.13-8.01-15.01-.98-20.46,3.31-2.85,7.93-4.46,12.9-5.34,24.74-3.12,50.24-4.05,75.09-2.54,7.52.47,15.36.16,22.68,2.19,12.18,2.93,21.55,13.32,23.74,25.61,2.69,15.38-1.1,31.03-1.84,46.44-.73,11.08-.42,22.31.77,33.41.71,6.34,1.9,12.65,4.1,18.66,2.46,6.99,6.4,13.46,9.76,19.99,2.15,4.22,4.27,9.39,2.16,13.8l-.09.18ZM125.49,141.48c2.49-19.42-17.67-41.74-37.76-34.14-22.91,8.29-29.31,58.07.79,59.91,15.56.85,34.53-9.14,36.94-25.49l.04-.27Z"/>
      <path class="cls-2" d="M224.33,154.79c11.56,1.09,11.11,18.33-1.1,17.28-10.83-1.95-11.48-17.56.81-17.3l.29.02Z"/>
      <path class="cls-1" d="M125.45,141.75c-2.41,16.35-21.38,26.34-36.94,25.49-30.09-1.83-23.7-51.61-.79-59.91,20.1-7.59,40.26,14.72,37.76,34.14l-.04.27Z"/>
    </g>
  </g>
</svg>